# xmcd
#
# Track frame offsets: 
#        182
#        17097
#        35615
#        51877
#
# Disc length: 930 seconds
#
# Revision: 0
# Processed by: cddbd v1.5.1PL0 Copyright (c) Steve Scherf et al.
# Submitted via: ExactAudioCopy v0.95b3
#
DISCID=2c03a004
DTITLE=Sharko - Cuckoo
DYEAR=1998
DGENRE=Psychedelic Rock
TTITLE0=Cuckoo
TTITLE1=Such a Bone
TTITLE2=Owen Cisk
TTITLE3=A Moon Over My House
EXTD=
EXTT0=
EXTT1=
EXTT2=
EXTT3=
PLAYORDER=
